<svg width="31" height="30" viewBox="0 0 31 30" fill="none" xmlns="http://www.w3.org/2000/svg">
<rect x="0.627808" width="29.8517" height="30" rx="4" fill="black"/>
<path d="M7.99765 20.5C7.90165 20.5 7.82165 20.468 7.75765 20.404C7.69365 20.3293 7.66165 20.244 7.66165 20.148C7.66165 20.0947 7.66698 20.052 7.67765 20.02C7.69898 19.988 7.71498 19.9613 7.72565 19.94L10.0777 16.692C9.86432 16.7453 9.64032 16.7667 9.40565 16.756C8.87232 16.7453 8.37098 16.644 7.90165 16.452C7.44298 16.2493 7.03765 15.9827 6.68565 15.652C6.34432 15.3107 6.07232 14.9213 5.86965 14.484C5.67765 14.036 5.58165 13.5507 5.58165 13.028C5.58165 12.548 5.67232 12.0787 5.85365 11.62C6.03498 11.1507 6.30165 10.7293 6.65365 10.356C7.01632 9.98267 7.46432 9.68933 7.99765 9.476C8.54165 9.252 9.17632 9.14 9.90165 9.14C10.6163 9.14 11.2457 9.24133 11.7897 9.444C12.3337 9.64667 12.787 9.92933 13.1497 10.292C13.523 10.644 13.8003 11.0493 13.9817 11.508C14.1737 11.9667 14.2697 12.452 14.2697 12.964C14.2697 13.4227 14.195 13.8493 14.0457 14.244C13.8963 14.6387 13.7097 15.0013 13.4857 15.332C13.2723 15.652 13.059 15.9667 12.8457 16.276L10.0297 20.18C9.98698 20.2333 9.92298 20.3027 9.83765 20.388C9.76298 20.4627 9.64565 20.5 9.48565 20.5H7.99765ZM9.91765 15.06C10.3017 15.06 10.6483 14.98 10.9577 14.82C11.2777 14.6493 11.5283 14.4147 11.7097 14.116C11.9017 13.8067 11.9977 13.444 11.9977 13.028C11.9977 12.6013 11.9017 12.2387 11.7097 11.94C11.5283 11.6307 11.2777 11.396 10.9577 11.236C10.6377 11.0653 10.291 10.98 9.91765 10.98C9.53365 10.98 9.18165 11.0653 8.86165 11.236C8.55232 11.396 8.30165 11.6307 8.10965 11.94C7.92832 12.2387 7.83765 12.6013 7.83765 13.028C7.83765 13.444 7.92832 13.8067 8.10965 14.116C8.30165 14.4147 8.55232 14.6493 8.86165 14.82C9.18165 14.98 9.53365 15.06 9.91765 15.06ZM20.1767 20.66C19.4193 20.66 18.774 20.548 18.2407 20.324C17.7073 20.1 17.27 19.7907 16.9286 19.396C16.5873 19.0013 16.3313 18.548 16.1607 18.036C15.99 17.5133 15.8886 16.9587 15.8566 16.372C15.846 16.084 15.8353 15.7693 15.8246 15.428C15.8246 15.076 15.8246 14.724 15.8246 14.372C15.8353 14.02 15.846 13.6947 15.8566 13.396C15.878 12.8093 15.9793 12.26 16.1607 11.748C16.342 11.2253 16.6033 10.772 16.9446 10.388C17.2967 10.004 17.7393 9.7 18.2727 9.476C18.806 9.252 19.4406 9.14 20.1767 9.14C20.9233 9.14 21.5633 9.252 22.0967 9.476C22.63 9.7 23.0673 10.004 23.4087 10.388C23.7607 10.772 24.022 11.2253 24.1927 11.748C24.374 12.26 24.4753 12.8093 24.4967 13.396C24.518 13.6947 24.5287 14.02 24.5287 14.372C24.5287 14.724 24.5287 15.076 24.5287 15.428C24.5287 15.7693 24.518 16.084 24.4967 16.372C24.4753 16.9587 24.3793 17.5133 24.2087 18.036C24.038 18.548 23.782 19.0013 23.4406 19.396C23.0993 19.7907 22.6567 20.1 22.1127 20.324C21.5793 20.548 20.934 20.66 20.1767 20.66ZM20.1767 18.82C20.87 18.82 21.3767 18.596 21.6967 18.148C22.0273 17.6893 22.198 17.0707 22.2087 16.292C22.23 15.9827 22.2407 15.6733 22.2407 15.364C22.2407 15.044 22.2407 14.724 22.2407 14.404C22.2407 14.084 22.23 13.78 22.2087 13.492C22.198 12.7347 22.0273 12.1267 21.6967 11.668C21.3767 11.1987 20.87 10.964 20.1767 10.964C19.494 10.964 18.9873 11.1987 18.6567 11.668C18.3367 12.1267 18.166 12.7347 18.1446 13.492C18.1446 13.78 18.1393 14.084 18.1286 14.404C18.1286 14.724 18.1286 15.044 18.1286 15.364C18.1393 15.6733 18.1446 15.9827 18.1446 16.292C18.166 17.0707 18.342 17.6893 18.6727 18.148C19.0033 18.596 19.5047 18.82 20.1767 18.82Z" fill="white"/>
</svg>
